control3min_grf.mot
version=1
nRows=22
nColumns 19
inDegrees=yes
endheader
time	1_ground_force_vx	1_ground_force_vy	1_ground_force_vz	1_ground_force_px	1_ground_force_py	1_ground_force_pz	1_ground_torque_x	1_ground_torque_y	1_ground_torque_z	2_ground_force_vx	2_ground_force_vy	2_ground_force_vz	2_ground_force_px	2_ground_force_py	2_ground_force_pz	2_ground_torque_x	2_ground_torque_y	2_ground_torque_z
            1.253500	           -0.091175	           -3.424869	           -0.060315	           -0.233013	            0.005581	           -0.255695	           -0.540922	            0.139631	           -0.265019	           -0.041204	           -1.476034	            0.745613	           -0.232311	            0.006130	           -0.833667	           -0.337855	           -0.076910	            0.018724
            1.254000	           -0.137326	           -3.604554	           -0.198542	           -0.233013	            0.005581	           -0.255695	           -0.403244	            0.046714	           -0.154919	            0.379739	           -1.290028	            0.652235	           -0.232311	            0.006130	           -0.833667	           -0.319009	           -0.104864	           -0.075636
            1.254500	           -0.044924	           -3.785981	            0.075593	           -0.233013	            0.005581	           -0.255695	           -0.565199	           -0.026891	           -0.226109	            0.051208	           -1.107733	            0.840744	           -0.232311	            0.006130	           -0.833667	           -0.394150	           -0.105135	           -0.075604
            1.255000	           -0.091109	           -3.785400	           -0.061861	           -0.233013	            0.005581	           -0.255695	           -0.428060	           -0.100595	           -0.285115	           -0.040457	           -1.660851	            0.932668	           -0.232311	            0.006130	           -0.833667	           -0.337785	           -0.114183	           -0.132212
            1.255500	           -0.000058	           -3.423868	           -0.289822	           -0.233013	            0.005581	           -0.255695	           -0.531280	           -0.091096	           -0.337316	            0.003693	           -0.923754	            0.841421	           -0.232311	            0.006130	           -0.833667	           -0.300249	           -0.095411	           -0.056760
            1.256000	           -0.136886	           -4.145940	           -0.063293	           -0.233013	            0.005581	           -0.255695	           -0.446667	           -0.017349	           -0.305452	           -0.273939	           -1.846682	            1.166752	           -0.232311	            0.006130	           -0.833667	           -0.413166	           -0.039101	           -0.056510
            1.256500	           -0.320647	           -4.505721	           -0.247807	           -0.233013	            0.005581	           -0.255695	           -0.495060	            0.075146	           -0.350337	           -0.043157	           -0.923923	            0.841440	           -0.232311	            0.006130	           -0.833667	           -0.300412	           -0.048214	           -0.037741
            1.257000	           -0.137653	           -3.063363	           -0.287935	           -0.233013	            0.005581	           -0.255695	           -0.493974	            0.121366	           -0.323576	            0.144243	           -0.923247	            0.841361	           -0.232311	            0.006130	           -0.833667	           -0.281736	           -0.028905	           -0.131933
            1.257500	            0.046615	           -3.605501	            0.030283	           -0.233013	            0.005581	           -0.255695	           -0.338054	            0.056304	           -0.203616	            0.149519	           -2.396099	            0.742248	           -0.232311	            0.006130	           -0.833667	           -0.300403	           -0.048282	           -0.018891
            1.258000	           -0.137341	           -4.145154	           -0.246716	           -0.233013	            0.005581	           -0.255695	           -0.494779	           -0.073470	           -0.155188	           -0.041869	           -1.291885	            0.746270	           -0.232311	            0.006130	           -0.833667	           -0.262560	           -0.123767	           -0.019177
            1.258500	           -0.183265	           -4.325232	           -0.293231	           -0.233013	            0.005581	           -0.255695	           -0.530478	           -0.137800	           -0.251314	            0.051852	           -1.291714	            0.793158	           -0.232311	            0.006130	           -0.833667	           -0.412919	           -0.105337	           -0.037896
            1.259000	           -0.000382	           -4.144144	           -0.476337	           -0.233013	            0.005581	           -0.255695	           -0.560400	           -0.091350	           -0.280824	           -0.136980	           -0.923258	            0.559912	           -0.232311	            0.006130	           -0.833667	           -0.337683	           -0.133357	           -0.056879
            1.259500	           -0.137602	           -3.964495	           -0.337655	           -0.233013	            0.005581	           -0.255695	           -0.491278	            0.000958	           -0.267673	            0.097996	           -1.107062	            0.699939	           -0.232311	            0.006130	           -0.833667	           -0.281539	           -0.085554	           -0.150985
            1.260000	            0.275180	           -3.784543	           -0.246194	           -0.233013	            0.005581	           -0.255695	           -0.438823	            0.102597	           -0.193387	           -0.086663	           -1.845002	            0.885103	           -0.232311	            0.006130	           -0.833667	           -0.394398	           -0.029715	           -0.018784
            1.260500	            0.000544	           -3.605117	           -0.061315	           -0.233013	            0.005581	           -0.255695	           -0.503112	            0.139438	           -0.204804	            0.287554	           -1.660169	            1.073313	           -0.232311	            0.006130	           -0.833667	           -0.356792	           -0.048216	           -0.094268
            1.261000	           -0.274789	           -3.965112	           -0.199746	           -0.233013	            0.005581	           -0.255695	           -0.515694	           -0.017995	           -0.179567	            0.100716	           -1.844158	            0.838095	           -0.232311	            0.006130	           -0.833667	           -0.300463	           -0.029443	            0.000027
            1.261500	           -0.045347	           -3.965460	           -0.108603	           -0.233013	            0.005581	           -0.255695	           -0.576074	           -0.063792	           -0.245032	            0.146175	           -1.475190	            0.698605	           -0.232311	            0.006130	           -0.833667	           -0.412902	           -0.105472	           -0.000195
            1.262000	            0.045983	           -4.505453	           -0.294573	           -0.233013	            0.005581	           -0.255695	           -0.380160	           -0.146909	           -0.241946	            0.100757	           -1.844492	            0.931952	           -0.232311	            0.006130	           -0.833667	           -0.431722	           -0.096087	           -0.000154
            1.262500	            0.045965	           -3.784587	           -0.245626	           -0.233013	            0.005581	           -0.255695	           -0.495226	           -0.063739	           -0.241330	            0.055195	           -2.212623	            0.836801	           -0.232311	            0.006130	           -0.833667	           -0.337607	           -0.152330	           -0.038096
            1.263000	            0.091335	           -3.062926	           -0.380215	           -0.233013	            0.005581	           -0.255695	           -0.489933	            0.047360	           -0.276534	            0.100113	           -1.660511	            0.979537	           -0.232311	            0.006130	           -0.833667	           -0.431713	           -0.105338	           -0.056738
            1.263500	           -0.182633	           -3.425280	            0.031625	           -0.233013	            0.005581	           -0.255695	           -0.488471	            0.093304	           -0.250460	           -0.041204	           -1.476034	            0.745613	           -0.232311	            0.006130	           -0.833667	           -0.225397	           -0.019383	           -0.094223
            1.264000	           -0.137668	           -3.603964	           -0.336109	           -0.233013	            0.005581	           -0.255695	           -0.472803	            0.102720	           -0.286093	            0.005667	           -1.476032	            0.792521	           -0.232311	            0.006130	           -0.833667	           -0.300548	           -0.010403	           -0.037606
